<svg width="100%" height="100%" viewBox="0 0 32 32" fill="none" xmlns="http://www.w3.org/2000/svg">
<g clip-path="url(#clip0_73_1121)">
<path d="M31.1746 10.7653C31.0413 9.16208 29.7079 7.10653 28.3744 6.11987C26.875 5.1102 25.317 4.17697 23.7074 3.32443C22.1102 2.44876 20.4632 1.65287 18.7738 0.940088C17.8714 0.599532 16.9037 0.431765 15.9293 0.446754C14.9543 0.427809 13.9857 0.595754 13.0845 0.940088C11.3954 1.65331 9.74852 2.4492 8.15092 3.32443C5.57291 4.76331 3.48391 6.11987 3.48391 6.11987C2.44951 6.92053 1.65168 7.93797 1.14889 9.07664C0.996956 9.42074 1.28739 9.77853 1.69188 9.77853H3.26224C3.71212 9.77853 4.11745 9.54487 4.36819 9.20208C4.72231 8.71808 5.15124 8.27853 5.64569 7.89841C5.64569 7.89841 7.37052 6.78597 9.49913 5.6062C10.8183 4.88853 12.178 4.23587 13.5727 3.65097C14.3169 3.36864 15.1165 3.23097 15.9216 3.24643C16.7261 3.2342 17.5252 3.37176 18.2702 3.65097C19.6651 4.23543 21.025 4.88809 22.3438 5.6062C23.6728 6.3052 24.9592 7.07053 26.1973 7.89841C27.2983 8.70753 28.3992 10.393 28.5093 11.7076C28.5093 11.7076 28.7662 13.6628 28.8029 15.9788C28.8007 17.4089 28.7149 18.8381 28.546 20.26C28.29 21.7487 27.4557 23.1019 26.1973 24.0692C26.1973 24.0692 24.4724 25.2153 22.3438 26.3952C21.0247 27.1128 19.6648 27.7655 18.2702 28.3504C17.5261 28.6327 16.7264 28.7704 15.9216 28.7548C15.1176 28.7704 14.3187 28.6361 13.5727 28.3605C12.1778 27.776 10.818 27.1233 9.49913 26.4053C7.37052 25.2592 5.64569 24.0793 5.64569 24.0793C5.21033 23.7595 4.7751 23.3025 4.39869 22.7857C4.15293 22.4481 3.75184 22.2228 3.30945 22.2228H1.70726C1.29757 22.2228 1.00833 22.5885 1.17274 22.9328C1.72033 24.0803 2.60206 25.2001 3.48391 25.8527C3.48391 25.8527 5.57291 27.2915 8.15092 28.6892C9.74827 29.5648 11.3952 30.3608 13.0845 31.0736C13.9879 31.4099 14.9556 31.5735 15.9293 31.5547C16.9041 31.5735 17.8725 31.4055 18.7738 31.0613C20.4629 30.348 22.1098 29.5521 23.7074 28.6768C26.2855 27.2381 28.3744 25.8403 28.3744 25.8403C29.8984 24.6607 30.9089 23.0104 31.2192 21.1948C31.4237 19.4609 31.5275 17.7181 31.5303 15.974C31.4858 13.1497 31.1746 10.7653 31.1746 10.7653Z" fill="url(#paint0_linear_73_1121)"/>
<path d="M0.328125 12.5778C0.328125 12.2341 0.631763 11.9556 1.0061 11.9556H11.5147C11.8892 11.9556 12.1927 12.2341 12.1927 12.5778V14.4445C12.1927 14.7881 11.8892 15.0666 11.5147 15.0666H0.328125V12.5778Z" fill="#0066B3"/>
<path d="M0.328125 16.9351H21.6842C22.0586 16.9351 22.3622 17.2136 22.3622 17.5572V19.4239C22.3622 19.7676 22.0586 20.0461 21.6842 20.0461H1.00598C0.631638 20.0461 0.328125 19.7676 0.328125 19.4239V16.9351Z" fill="#EE2F53"/>
</g>
<defs>
<linearGradient id="paint0_linear_73_1121" x1="16.2048" y1="0.445309" x2="16.2048" y2="31.5561" gradientUnits="userSpaceOnUse">
<stop stop-color="#0066B3"/>
<stop offset="0.354167" stop-color="#0066B3"/>
<stop offset="0.6875" stop-color="#EE2F53"/>
<stop offset="1" stop-color="#EE2F53"/>
</linearGradient>
<clipPath id="clip0_73_1121">
<rect width="32" height="32" fill="white"/>
</clipPath>
</defs>
</svg>
