<svg width="22" height="16" viewBox="0 0 22 16" fill="none" xmlns="http://www.w3.org/2000/svg">
<path fill-rule="evenodd" clip-rule="evenodd" d="M11 0.5C4.25 0.5 0.5 5.75 0.5 8C0.5 10.25 4.25 15.5 11 15.5C17.75 15.5 21.5 10.25 21.5 8C21.5 5.75 17.75 0.5 11 0.5ZM4.552 11.103C3.282 9.966 2.5 8.583 2.5 8C2.5 7.416 3.281 6.034 4.552 4.897C6.231 3.395 8.438 2.5 11 2.5C13.562 2.5 15.77 3.395 17.448 4.897C18.718 6.034 19.5 7.417 19.5 8C19.5 8.584 18.719 9.966 17.448 11.103C15.769 12.605 13.562 13.5 11 13.5C8.438 13.5 6.23 12.605 4.552 11.103ZM11 12C9.93913 12 8.92172 11.5786 8.17157 10.8284C7.42143 10.0783 7 9.06087 7 8C7 6.93913 7.42143 5.92172 8.17157 5.17157C8.92172 4.42143 9.93913 4 11 4C12.0609 4 13.0783 4.42143 13.8284 5.17157C14.5786 5.92172 15 6.93913 15 8C15 9.06087 14.5786 10.0783 13.8284 10.8284C13.0783 11.5786 12.0609 12 11 12ZM13 8C13 8.53043 12.7893 9.03914 12.4142 9.41421C12.0391 9.78929 11.5304 10 11 10C10.4696 10 9.96086 9.78929 9.58579 9.41421C9.21071 9.03914 9 8.53043 9 8C9 7.46957 9.21071 6.96086 9.58579 6.58579C9.96086 6.21071 10.4696 6 11 6C11.5304 6 12.0391 6.21071 12.4142 6.58579C12.7893 6.96086 13 7.46957 13 8Z" fill="#B6B6B6"/>
</svg>
