<svg width="100%" height="100%" viewBox="0 0 32 32" fill="none" xmlns="http://www.w3.org/2000/svg">
<g clip-path="url(#clip0_67_110)">
<path fill-rule="evenodd" clip-rule="evenodd" d="M2.24942 2.24942C0 4.49884 0 8.11922 0 15.36V16.64C0 23.8808 0 27.5012 2.24942 29.7506C4.49884 32 8.11922 32 15.36 32H16.64C23.8808 32 27.5012 32 29.7506 29.7506C32 27.5012 32 23.8808 32 16.64V15.36C32 8.11922 32 4.49884 29.7506 2.24942C27.5012 0 23.8808 0 16.64 0H15.36C8.11922 0 4.49884 0 2.24942 2.24942ZM5.5 10C5.67334 18.32 9.8333 23.32 17.1266 23.32H17.54V18.56C20.22 18.8267 22.2466 20.7866 23.0598 23.32H26.8466C25.8066 19.5333 23.0732 17.44 21.3666 16.64C23.0732 15.6533 25.4732 13.2533 26.0466 10H22.6064C21.8598 12.64 19.6467 15.0333 17.54 15.26V10H14.0999V19.22C11.9666 18.6867 9.27332 16.1067 9.15332 10H5.5Z" fill="#0077FF"/>
</g>
<defs>
<clipPath id="clip0_67_110">
<rect width="32" height="32" fill="white"/>
</clipPath>
</defs>
</svg>
